<?xml version="1.0" encoding="UTF-8" standalone="no"?>
<!-- Created with Inkscape (http://www.inkscape.org/) -->

<svg
   xmlns:dc="http://purl.org/dc/elements/1.1/"
   xmlns:cc="http://creativecommons.org/ns#"
   xmlns:rdf="http://www.w3.org/1999/02/22-rdf-syntax-ns#"
   xmlns:svg="http://www.w3.org/2000/svg"
   xmlns="http://www.w3.org/2000/svg"
   xmlns:sodipodi="http://sodipodi.sourceforge.net/DTD/sodipodi-0.dtd"
   xmlns:inkscape="http://www.inkscape.org/namespaces/inkscape"
   width="512"
   height="512"
   viewBox="0 0 511.99999 511.99999"
   id="svg3451"
   version="1.1"
   inkscape:version="0.91 r13725"
   sodipodi:docname="LogoCMH.svg"
   inkscape:export-filename="/home/renegng/Desktop/CMH_Assets/LogoCMH.svg.png"
   inkscape:export-xdpi="90"
   inkscape:export-ydpi="90">
  <defs
     id="defs3453">
    <clipPath
       clipPathUnits="userSpaceOnUse"
       id="clipPath16">
      <path
         d="m 0,359.106 433.596,0 L 433.596,0 0,0 0,359.106 Z"
         id="path18"
         inkscape:connector-curvature="0" />
    </clipPath>
  </defs>
  <sodipodi:namedview
     id="base"
     pagecolor="#ffffff"
     bordercolor="#666666"
     borderopacity="1.0"
     inkscape:pageopacity="0.0"
     inkscape:pageshadow="2"
     inkscape:zoom="1.4"
     inkscape:cx="266.76527"
     inkscape:cy="246.75579"
     inkscape:document-units="px"
     inkscape:current-layer="layer1"
     showgrid="false"
     units="px"
     inkscape:window-width="1857"
     inkscape:window-height="1056"
     inkscape:window-x="63"
     inkscape:window-y="24"
     inkscape:window-maximized="1" />
  <metadata
     id="metadata3456">
    <rdf:RDF>
      <cc:Work
         rdf:about="">
        <dc:format>image/svg+xml</dc:format>
        <dc:type
           rdf:resource="http://purl.org/dc/dcmitype/StillImage" />
        <dc:title />
      </cc:Work>
    </rdf:RDF>
  </metadata>
  <g
     inkscape:label="Layer 1"
     inkscape:groupmode="layer"
     id="layer1"
     transform="translate(0,-540.36219)">
    <g
       transform="matrix(1.875,0,0,-1.875,-137.25379,1164.2543)"
       id="g12">
      <g
         id="g14"
         clip-path="url(#clipPath16)">
        <g
           id="g20"
           transform="translate(310.6177,285.913)">
          <path
             d="M 0,0 C 5.294,1.821 10.608,3.403 15.938,4.771 11.287,15.29 5.402,24.882 -1.609,33.145 c -0.63,0.744 -1.551,1.171 -2.526,1.171 -0.742,0 -1.469,-0.253 -2.057,-0.71 -11.017,-8.696 -20.644,-19.907 -28.624,-33.322 -0.151,-0.257 -0.425,-0.423 -0.721,-0.442 -0.303,-0.022 -0.582,0.104 -0.765,0.342 -9.715,12.215 -20.768,22.026 -32.857,29.16 -0.511,0.299 -1.093,0.457 -1.686,0.457 -1.135,0 -2.185,-0.573 -2.793,-1.531 -7.555,-11.823 -12.978,-25.569 -16.116,-40.862 -0.06,-0.293 -0.259,-0.535 -0.534,-0.651 0,-0.002 -0.005,0 -0.005,-0.002 6.02,-10.237 11.194,-21.068 15.389,-32.411 C -54.19,-25.773 -28.941,-9.955 0,0"
             style="fill:#e4c028;fill-opacity:1;fill-rule:nonzero;stroke:none"
             id="path22"
             inkscape:connector-curvature="0" />
        </g>
        <g
           id="g24"
           transform="translate(194.9468,284.9423)">
          <path
             d="m 0,0 c -5.319,1.951 -10.684,3.488 -16.057,4.573 -0.21,0.043 -0.436,0.066 -0.657,0.066 -1.54,0 -2.864,-1.045 -3.22,-2.545 -3.252,-13.61 -3.877,-28.34 -1.847,-43.78 0.038,-0.296 -0.075,-0.591 -0.296,-0.791 -0.215,-0.197 -0.522,-0.278 -0.807,-0.21 -9.747,2.262 -19.514,3.411 -29.029,3.411 -5.023,0 -10.01,-0.334 -14.813,-0.986 -1.776,-0.242 -3.031,-1.83 -2.854,-3.613 1.304,-13.082 5.164,-26.332 11.411,-39.433 15.211,-2.706 30.008,-7.129 44.11,-13.117 C -17.161,-63.859 -12.465,-30.714 0,0"
             style="fill:#ec008c;fill-opacity:1;fill-rule:nonzero;stroke:none"
             id="path26"
             inkscape:connector-curvature="0" />
        </g>
        <g
           id="g28"
           transform="translate(180.8877,188.5175)">
          <path
             d="M 0,0 C 4.313,-1.828 8.561,-3.805 12.735,-5.926 23.213,15.472 37.417,35.038 54.826,51.74 50.631,63.083 45.457,73.914 39.437,84.15 39.163,84.038 38.85,84.062 38.602,84.22 30.574,89.311 22.357,93.382 14.059,96.425 1.594,65.71 -3.102,32.565 0,0"
             style="fill:#e76525;fill-opacity:1;fill-rule:nonzero;stroke:none"
             id="path30"
             inkscape:connector-curvature="0" />
        </g>
        <g
           id="g32"
           transform="translate(193.6226,182.5917)">
          <path
             d="m 0,0 c 5.772,-2.929 11.398,-6.131 16.87,-9.591 0.011,0.038 0.021,0.082 0,0.116 -0.743,1.185 -1.4,4.058 0.317,5.654 0.588,0.544 1.309,0.832 2.014,1.113 1.454,0.578 2.822,1.125 2.65,3.718 -0.077,1.066 -0.491,2.094 -0.798,2.778 -0.419,0.942 -0.92,1.772 -1.486,2.469 -0.269,0.334 -0.548,0.648 -0.813,0.939 -0.005,0.003 -0.048,0.052 -0.048,0.054 -0.351,0.391 -0.685,0.76 -0.986,1.166 -0.447,0.601 -0.781,1.187 -1.007,1.796 -0.349,0.939 -0.818,2.34 -0.754,3.65 0.007,0.213 0.071,0.948 0.399,1.407 0.469,0.664 1.647,1.006 3.694,1.552 1.777,0.477 3.985,1.069 6.386,2.211 8.841,4.178 12.126,10.68 15.609,17.565 1.341,2.646 2.698,5.316 4.389,7.925 -1.308,4.45 -2.757,8.836 -4.345,13.144 C 24.682,40.963 10.479,21.397 0,0"
             style="fill:#e76525;fill-opacity:1;fill-rule:nonzero;stroke:none"
             id="path34"
             inkscape:connector-curvature="0" />
        </g>
        <g
           id="g36"
           transform="translate(185.0718,162.4555)">
          <path
             d="m 0,0 c -1.96,8.608 -3.354,17.312 -4.184,26.062 -14.102,5.988 -28.899,10.411 -44.11,13.117 0.403,-0.86 0.791,-1.721 1.228,-2.577 0.128,-0.267 0.123,-0.582 -0.017,-0.84 -0.14,-0.263 -0.409,-0.437 -0.706,-0.466 -15.48,-1.629 -29.69,-5.68 -42.232,-12.04 -1.604,-0.81 -2.266,-2.718 -1.507,-4.345 5.897,-12.737 14.56,-24.71 25.75,-35.589 0.215,-0.208 0.312,-0.506 0.263,-0.8 -0.048,-0.293 -0.242,-0.544 -0.511,-0.673 -14.135,-6.604 -26.25,-15.075 -36.001,-25.176 -1.239,-1.289 -1.239,-3.311 0,-4.604 21.479,-22.254 54.637,-36.429 90.461,-39.127 C -14.141,-57.082 -9.979,-27.423 0,0"
             style="fill:#853b90;fill-opacity:1;fill-rule:nonzero;stroke:none"
             id="path38"
             inkscape:connector-curvature="0" />
        </g>
        <g
           id="g40"
           transform="translate(180.8877,188.5175)">
          <path
             d="m 0,0 c 0.83,-8.75 2.224,-17.454 4.184,-26.062 2.498,6.86 5.346,13.586 8.551,20.136 C 8.561,-3.805 4.313,-1.828 0,0"
             style="fill:#ff8041;fill-opacity:1;fill-rule:nonzero;stroke:none"
             id="path42"
             inkscape:connector-curvature="0" />
        </g>
        <g
           id="g44"
           transform="translate(217.9121,78.0092)">
          <path
             d="m 0,0 c 0.07,0.017 0.124,0.092 0.113,0.173 -0.005,0.073 -0.081,0.126 -0.13,0.126 -3.225,-0.282 -6.428,-0.425 -9.551,-0.425 -12.094,0 -21.981,2.237 -24.043,5.441 -0.478,0.746 -0.527,1.534 -0.156,2.34 6.144,13.413 14.156,19.398 22.109,21.993 -9.805,17.357 -16.864,35.829 -21.182,54.798 -9.979,-27.423 -14.141,-57.081 -11.566,-87.058 4.124,-0.311 8.281,-0.508 12.465,-0.508 10.715,0 21.462,1.05 31.941,3.12"
             style="fill:#2e3092;fill-opacity:1;fill-rule:nonzero;stroke:none"
             id="path46"
             inkscape:connector-curvature="0" />
        </g>
        <g
           id="g48"
           transform="translate(185.0718,162.4555)">
          <path
             d="m 0,0 c 4.318,-18.97 11.377,-37.441 21.183,-54.798 4.588,1.497 9.154,1.871 13.332,1.871 1.68,0 3.274,-0.052 4.668,-0.1 l 0.156,-0.005 c 1.206,-0.04 2.349,-0.078 3.382,-0.078 3.505,0 6.946,0.31 7.054,4.027 0.345,11.639 -5.051,19.498 -5.276,19.826 -2.516,2.385 -5.736,4.144 -7.819,4.839 -4.497,1.496 -10.037,4.097 -13.279,5.876 -2.488,1.374 -5.191,4.146 -5.611,7.246 -0.284,2.121 0.527,4.135 2.429,5.98 0.194,0.187 0.404,0.384 0.619,0.581 2.343,2.172 4.211,4.407 1.433,7.864 -1.024,1.281 -1.185,2.942 -0.426,4.552 0.738,1.589 2.154,2.722 3.441,2.755 0.059,0 0.113,0.029 0.135,0.075 0.004,0.01 0,0.022 0,0.034 -5.472,3.46 -11.098,6.663 -16.87,9.591 C 5.346,13.586 2.498,6.86 0,0"
             style="fill:#e4c028;fill-opacity:1;fill-rule:nonzero;stroke:none"
             id="path50"
             inkscape:connector-curvature="0" />
        </g>
        <g
           id="g52"
           transform="translate(317.2461,307.9272)">
          <path
             d="m 0,0 -6.838,10.053 c 0,0 -1.431,2.842 -4.445,2.207 -1.043,-0.219 -2.148,-1.072 -3.623,-2.307 -1.564,-1.308 -3.068,-2.667 -4.374,-3.875 -2.307,-2.133 -3.905,-3.831 -3.905,-3.831 l 16.407,-16.889 c 0,0 5.044,8.126 6.778,14.642"
             style="fill:#ef3443;fill-opacity:1;fill-rule:nonzero;stroke:none"
             id="path54"
             inkscape:connector-curvature="0" />
        </g>
        <g
           id="g56"
           transform="translate(326.5557,290.6845)">
          <path
             d="m 0,0 c -5.33,-1.369 -10.644,-2.951 -15.938,-4.771 -28.941,-9.956 -54.19,-25.773 -74.904,-45.656 1.588,-4.308 3.037,-8.694 4.345,-13.143 3.35,5.153 7.997,10.044 16.466,13.91 0.307,0.146 0.679,0.097 0.948,-0.118 0.033,-0.028 0.058,-0.063 0.087,-0.095 -2.565,-6 -7.423,-22.034 1.302,-43.992 l 15.069,-38.68 c 0,0 8.444,-30.957 1.631,-48.76 -0.019,-0.05 -0.04,-0.092 -0.048,-0.146 -0.816,-5.678 -7.673,-11.176 1.853,-5.626 0,0 6.219,3.605 11.629,9.242 3.189,3.321 7.433,7.693 11.514,12.375 20.533,21.859 34.321,53.426 37.721,87.48 C 14.433,-50.341 10.15,-22.962 0,0"
             style="fill:#2e3092;fill-opacity:1;fill-rule:nonzero;stroke:none"
             id="path58"
             inkscape:connector-curvature="0" />
        </g>
        <g
           id="g60"
           transform="translate(317.2461,307.9272)">
          <path
             d="m 0,0 c 0,0 11.29,-15.595 16.708,-38.524 0,0 -20.765,21.652 -23.486,23.882 l 5.528,12.814 1.191,1.611"
             style="fill:#ec008c;fill-opacity:1;fill-rule:nonzero;stroke:none"
             id="path62"
             inkscape:connector-curvature="0" />
        </g>
        <g
           id="g64"
           transform="translate(268.2002,293.2724)">
          <path
             d="m 0,0 c 0,0 4.543,-36.957 -12.643,-65.69 0,0 54.779,54.331 61.63,80.465 l -6.882,9.452 c 0,0 -2.873,3.999 -7.244,0.923 C 30.524,22.099 13.338,5.04 9.932,-3.294 L 7.588,-7.59 c 0,0 -1.029,-0.661 -2.348,1.503 C 3.921,-3.923 0,0 0,0"
             style="fill:#29793c;fill-opacity:1;fill-rule:nonzero;stroke:none"
             id="path66"
             inkscape:connector-curvature="0" />
        </g>
      </g>
    </g>
  </g>
</svg>
